<svg xmlns="http://www.w3.org/2000/svg" width="31" height="25" fill="none" viewBox="0 0 31 25"><g clip-path="url(#clip0_42_328)"><path fill="#111" d="M0 5.20789L0 19.2997C0 22.1759 2.32525 24.5076 5.19358 24.5076H25.3569C28.2252 24.5076 30.5505 22.1759 30.5505 19.2997V5.20789C30.5505 2.33167 28.2252 3.43323e-05 25.3569 3.43323e-05H5.19358C2.32525 3.43323e-05 0 2.33167 0 5.20789Z"/><path fill="url(#paint0_linear_42_328)" d="M0 5.20789L0 19.2997C0 22.1759 2.32525 24.5076 5.19358 24.5076H25.3569C28.2252 24.5076 30.5505 22.1759 30.5505 19.2997V5.20789C30.5505 2.33167 28.2252 3.43323e-05 25.3569 3.43323e-05H5.19358C2.32525 3.43323e-05 0 2.33167 0 5.20789Z"/><path fill="url(#paint1_linear_42_328)" d="M7.63757 6.12694C7.63757 5.28099 6.95367 4.59521 6.11004 4.59521C5.26642 4.59521 4.58252 5.28099 4.58252 6.12694C4.58252 6.97288 5.26642 7.65866 6.11004 7.65866C6.95367 7.65866 7.63757 6.97288 7.63757 6.12694Z"/><path fill="url(#paint2_linear_42_328)" d="M7.63757 6.12694C7.63757 5.28099 6.95367 4.59521 6.11004 4.59521C5.26642 4.59521 4.58252 5.28099 4.58252 6.12694C4.58252 6.97288 5.26642 7.65866 6.11004 7.65866C6.95367 7.65866 7.63757 6.97288 7.63757 6.12694Z"/><path fill="url(#paint3_linear_42_328)" d="M7.63757 6.12694C7.63757 5.28099 6.95367 4.59521 6.11004 4.59521C5.26642 4.59521 4.58252 5.28099 4.58252 6.12694C4.58252 6.97288 5.26642 7.65866 6.11004 7.65866C6.95367 7.65866 7.63757 6.97288 7.63757 6.12694Z"/><path fill="url(#paint4_linear_42_328)" d="M7.63757 18.371C7.63757 17.525 6.95367 16.8392 6.11004 16.8392C5.26642 16.8392 4.58252 17.525 4.58252 18.371C4.58252 19.2169 5.26642 19.9027 6.11004 19.9027C6.95367 19.9027 7.63757 19.2169 7.63757 18.371Z"/><path fill="url(#paint5_linear_42_328)" d="M25.9679 12.2538C25.9679 11.4078 25.284 10.722 24.4404 10.722C23.5967 10.722 22.9128 11.4078 22.9128 12.2538C22.9128 13.0997 23.5967 13.7855 24.4404 13.7855C25.284 13.7855 25.9679 13.0997 25.9679 12.2538Z"/><path fill="url(#paint6_linear_42_328)" d="M25.9679 12.2538C25.9679 11.4078 25.284 10.722 24.4404 10.722C23.5967 10.722 22.9128 11.4078 22.9128 12.2538C22.9128 13.0997 23.5967 13.7855 24.4404 13.7855C25.284 13.7855 25.9679 13.0997 25.9679 12.2538Z"/><path fill="url(#paint7_linear_42_328)" d="M24.4404 4.59521H12.2202C11.3765 4.59521 10.6926 5.28099 10.6926 6.12694C10.6926 6.97288 11.3765 7.65866 12.2202 7.65866H24.4404C25.284 7.65866 25.9679 6.97288 25.9679 6.12694C25.9679 5.28099 25.284 4.59521 24.4404 4.59521Z"/><path fill="url(#paint8_linear_42_328)" d="M24.4404 16.8392H12.2202C11.3765 16.8392 10.6926 17.525 10.6926 18.371C10.6926 19.2169 11.3765 19.9027 12.2202 19.9027H24.4404C25.284 19.9027 25.9679 19.2169 25.9679 18.371C25.9679 17.525 25.284 16.8392 24.4404 16.8392Z"/><path fill="url(#paint9_linear_42_328)" d="M18.3302 10.722H6.11004C5.26642 10.722 4.58252 11.4078 4.58252 12.2538C4.58252 13.0997 5.26642 13.7855 6.11004 13.7855H18.3302C19.1739 13.7855 19.8578 13.0997 19.8578 12.2538C19.8578 11.4078 19.1739 10.722 18.3302 10.722Z"/></g><defs><linearGradient id="paint0_linear_42_328" x1="15.275" x2="15.275" y1="0" y2="24.533" gradientUnits="userSpaceOnUse"><stop stop-color="#1D273D"/><stop offset="1" stop-color="#0D0F13"/></linearGradient><linearGradient id="paint1_linear_42_328" x1="5.053" x2="7.136" y1="7.638" y2="4.86" gradientUnits="userSpaceOnUse"><stop stop-color="#4462FE"/><stop offset="1" stop-color="#7D69FA"/></linearGradient><linearGradient id="paint2_linear_42_328" x1="4.851" x2="7.417" y1="7.66" y2="7.529" gradientUnits="userSpaceOnUse"><stop stop-color="#3757FD"/><stop offset="1" stop-color="#6980FA"/></linearGradient><linearGradient id="paint3_linear_42_328" x1="4.851" x2="7.417" y1="7.66" y2="7.529" gradientUnits="userSpaceOnUse"><stop stop-color="#2447FF"/><stop offset="1" stop-color="#6980FA"/></linearGradient><linearGradient id="paint4_linear_42_328" x1="5.015" x2="7.059" y1="19.403" y2="17.243" gradientUnits="userSpaceOnUse"><stop stop-color="#BC3EE6"/><stop offset="1" stop-color="#D972F1"/></linearGradient><linearGradient id="paint5_linear_42_328" x1="23.53" x2="25.42" y1="13.269" y2="11.264" gradientUnits="userSpaceOnUse"><stop stop-color="#29BDFF"/><stop offset="1" stop-color="#96E7FB"/></linearGradient><linearGradient id="paint6_linear_42_328" x1="23.158" x2="25.811" y1="13.764" y2="13.638" gradientUnits="userSpaceOnUse"><stop stop-color="#23BBFF"/><stop offset="1" stop-color="#85E7FF"/></linearGradient><linearGradient id="paint7_linear_42_328" x1="11.919" x2="24.494" y1="7.638" y2="4.629" gradientUnits="userSpaceOnUse"><stop stop-color="#23BBFF"/><stop offset="1" stop-color="#85E7FF"/></linearGradient><linearGradient id="paint8_linear_42_328" x1="12.035" x2="24.109" y1="19.904" y2="16.818" gradientUnits="userSpaceOnUse"><stop stop-color="#2447FF"/><stop offset="1" stop-color="#6980FA"/></linearGradient><linearGradient id="paint9_linear_42_328" x1="6.635" x2="18.168" y1="13.809" y2="10.723" gradientUnits="userSpaceOnUse"><stop stop-color="#6634FF"/><stop offset="1" stop-color="#9C6DFF"/></linearGradient><clipPath id="clip0_42_328"><rect width="30.55" height="24.508" fill="#fff"/></clipPath></defs></svg>